<?xml version="1.0" encoding="iso-8859-1"?>
<!-- Generator: Adobe Illustrator 19.0.0, SVG Export Plug-In . SVG Version: 6.00 Build 0)  -->
<svg xmlns="http://www.w3.org/2000/svg" xmlns:xlink="http://www.w3.org/1999/xlink" version="1.1" id="Capa_1" x="0px" y="0px" viewBox="0 0 512 512" style="enable-background:new 0 0 512 512;" xml:space="preserve" width="512px" height="512px">
<g>
	<g>
		<path d="M512,30V0H0v30h30v362H0v120h512V392h-30V30H512z M60,30h392v60H60V30z M452,120v272h-30V120H452z M362,316    c0-9.584-1.287-19.101-3.826-28.286l-33.508-121.295l-27.998,27.539L256,140.111l-40.668,53.847l-27.998-27.539l-33.507,121.293    C151.287,296.899,150,306.416,150,316c0,29.78,12.349,56.726,32.19,76H120V120h272v272h-62.19C349.65,372.726,362,345.78,362,316z     M256,392c-41.907,0-76-34.094-76-76c0-6.884,0.922-13.712,2.743-20.298l19.924-72.121l16.001,15.738L256,189.889l37.333,49.431    l16.001-15.738l19.924,72.122C331.078,302.288,332,309.116,332,316C332,357.906,297.907,392,256,392z M60,120h30v272H60V120z     M482,482H30v-60h452V482z" fill="#91DC5A"/>
	</g>
</g>
<g>
	<g>
		<path d="M292.747,288.327L256,239.669l-36.745,48.659C215.033,293.915,210,303.251,210,316c0,25.364,20.636,46,46,46    s46-20.636,46-46C302,303.253,296.967,293.915,292.747,288.327z M256,332c-8.822,0-16-7.178-16-16    c0-3.561,1.073-6.785,3.192-9.589L256,289.45l12.807,16.958C270.926,309.213,272,312.44,272,316C272,324.822,264.822,332,256,332z    " fill="#91DC5A"/>
	</g>
</g>
<g>
</g>
<g>
</g>
<g>
</g>
<g>
</g>
<g>
</g>
<g>
</g>
<g>
</g>
<g>
</g>
<g>
</g>
<g>
</g>
<g>
</g>
<g>
</g>
<g>
</g>
<g>
</g>
<g>
</g>
</svg>
